<?xml version="1.0" encoding="UTF-8"?>
<svg id="Layer_1" data-name="Layer 1" xmlns="http://www.w3.org/2000/svg" viewBox="0 0 450 203">
  <defs>
    <style>
      .cls-1 {
        fill: #28a8e0;
      }

      .cls-2 {
        fill: #1d76bb;
      }

      .cls-3 {
        fill: #273d90;
      }

      .cls-4 {
        fill: #6c7c5a;
      }
    </style>
  </defs>
  <path class="cls-3" d="M268.65,117.28l-4.86-7.13c-.67-1.01-1.54-1.93-1.54-1.93v-.1c3.85-1.35,6.5-4.28,6.5-8.67,0-6.31-5.01-10.11-12.04-10.11h-13.38c-.32,0-.58.26-.58.58v27.73c0,.32.26.58.58.58h5.39c.32,0,.58-.26.58-.58v-8.47h0v-5.2h0v-9.15h6.98c3.61,0,5.92,1.78,5.92,4.62s-2.31,4.53-5.92,4.53h-.88v4.02c0,.77.24,1.52.67,2.14l5.31,7.6c.19.29.53.48.77.48h6.4c.29,0,.39-.14.39-.34,0-.1-.05-.29-.29-.63Z"/>
  <path class="cls-3" d="M83.2,118.24l-14.73-15.02c-1.54-1.54-3.27-3.71-3.27-3.71h-.14v18.15c0,.29-.29.58-.58.58h-5.39c-.29,0-.58-.29-.58-.58v-27.73c0-.29.29-.58.58-.58h4.43l14.59,14.83c1.59,1.59,3.37,3.9,3.37,3.9h.19v-18.15c0-.29.29-.58.58-.58h5.39c.29,0,.58.29.58.58v27.73c0,.29-.29.58-.58.58h-4.43Z"/>
  <path class="cls-3" d="M138.25,103.8c0,9.05-7.27,14.92-15.94,14.92s-15.94-5.87-15.94-14.92,7.27-14.93,15.94-14.93,15.94,6.02,15.94,14.93ZM112.92,103.8c0,5.83,4.29,9.44,9.39,9.44s9.39-3.61,9.39-9.44-4.28-9.44-9.39-9.44-9.39,3.61-9.39,9.44Z"/>
  <path class="cls-3" d="M165.56,103.89c1.01,2.07,1.88,4.77,1.88,4.77h.29s.87-2.7,1.88-4.77l6.69-13.91c.29-.58.43-.63,1.01-.63h5.78c.29,0,.39.14.39.29s-.14.43-.29.72l-13.34,27.88h-4.53l-13.34-27.88c-.14-.29-.29-.58-.29-.72s.1-.29.39-.29h5.78c.58,0,.72.05,1.01.63l6.69,13.91Z"/>
  <path class="cls-3" d="M293.67,117.66c0,.29-.29.58-.58.58h-5.39c-.29,0-.58-.29-.58-.58v-27.73c0-.29.29-.58.58-.58h5.39c.29,0,.58.29.58.58v27.73Z"/>
  <path class="cls-3" d="M343.63,103.8c0,9.05-7.27,14.92-15.94,14.92s-15.94-5.87-15.94-14.92,7.27-14.93,15.94-14.93,15.94,6.02,15.94,14.93ZM318.3,103.8c0,5.83,4.28,9.44,9.39,9.44s9.39-3.61,9.39-9.44-4.29-9.44-9.39-9.44-9.39,3.61-9.39,9.44Z"/>
  <path class="cls-3" d="M386.49,118.24l-14.73-15.02c-1.54-1.54-3.27-3.71-3.27-3.71h-.14v18.15c0,.29-.29.58-.58.58h-5.39c-.29,0-.58-.29-.58-.58v-27.73c0-.29.29-.58.58-.58h4.43l14.59,14.83c1.59,1.59,3.37,3.9,3.37,3.9h.19v-18.15c0-.29.29-.58.58-.58h5.39c.29,0,.58.29.58.58v27.73c0,.29-.29.58-.58.58h-4.43Z"/>
  <path class="cls-3" d="M225.89,117.33l-13.58-27.97h-5.01l-13.58,27.97c-.1.19-.19.43-.19.58s.1.34.39.34h5.73c.58,0,.72-.05,1.01-.63l.49-1.03,6.49-13.79c1.01-2.07,2.02-5.15,2.02-5.15h.29s1.01,3.08,2.02,5.15l7.05,14.92.02.05c.24.42.41.48.93.48h5.73c.29,0,.38-.19.38-.34s-.1-.39-.19-.58Z"/>
  <g>
    <path class="cls-3" d="M82.14,147.13c-.12,0-.23-.12-.23-.23v-11.07c0-.12.12-.23.23-.23h4.86c3.65,0,6.38,2.25,6.38,5.77s-2.31,5.77-6.34,5.77h-4.9ZM84.52,137.79v7.15h2.52c2.44,0,3.73-1.38,3.73-3.58s-1.58-3.58-3.77-3.58h-2.48Z"/>
    <path class="cls-3" d="M114.83,135.6c.12,0,.23.12.23.23v11.07c0,.12-.12.23-.23.23h-2.15c-.12,0-.23-.12-.23-.23v-7.06h-.06s-.23.58-.71,1.23l-3.4,4.79-3.42-4.79c-.46-.65-.69-1.23-.69-1.23h-.06v7.06c0,.12-.12.23-.23.23h-2.15c-.12,0-.23-.12-.23-.23v-11.07c0-.12.12-.23.23-.23h1.69c.13,0,.27.06.37.19l4.48,6.27h.04l4.48-6.27c.1-.13.23-.19.37-.19h1.69Z"/>
    <path class="cls-4" d="M130.4,141.32l4.44,5.54c.06.08.08.12.08.15,0,.06-.04.12-.12.12h-2.73c-.25,0-.29-.02-.46-.23l-3.02-3.75h-.04s-.79,1.12-1.17,1.61l-1.67,2.13c-.17.23-.23.23-.46.23h-2.58c-.08,0-.12-.06-.12-.12,0-.04.02-.08.08-.15l4.4-5.69-4.23-5.31c-.06-.08-.08-.12-.08-.15,0-.06.04-.12.12-.12h2.69c.25,0,.33.02.52.27l2.83,3.52h.04s.37-.58.81-1.15l1.85-2.37c.17-.21.29-.27.46-.27h2.6c.08,0,.12.06.12.12s-.02.1-.08.17l-4.27,5.44Z"/>
    <path class="cls-3" d="M161.74,140.25c-.19,0-.29-.08-.33-.31-.19-1.33-1.4-2.35-3.13-2.35-1.98,0-3.6,1.52-3.6,3.77s1.54,3.77,3.6,3.77c1.75,0,2.92-.86,3.13-2.15.04-.25.13-.33.37-.33h1.92c.15,0,.33.1.33.29,0,2.48-2.33,4.38-5.75,4.38s-6.21-2.4-6.21-5.96,2.73-5.96,6.21-5.96c3.65,0,5.75,2.31,5.75,4.59,0,.13-.1.25-.31.25h-1.98Z"/>
    <path class="cls-3" d="M184.21,141.36c0,3.61-2.9,5.96-6.36,5.96s-6.36-2.35-6.36-5.96,2.9-5.96,6.36-5.96,6.36,2.4,6.36,5.96ZM174.1,141.36c0,2.33,1.71,3.77,3.75,3.77s3.75-1.44,3.75-3.77-1.71-3.77-3.75-3.77-3.75,1.44-3.75,3.77Z"/>
    <path class="cls-3" d="M202.18,147.13l-5.88-6c-.62-.62-1.31-1.48-1.31-1.48h-.06v7.25c0,.12-.12.23-.23.23h-2.15c-.12,0-.23-.12-.23-.23v-11.07c0-.12.12-.23.23-.23h1.77l5.83,5.92c.63.63,1.35,1.56,1.35,1.56h.08v-7.25c0-.12.12-.23.23-.23h2.15c.12,0,.23.12.23.23v11.07c0,.12-.12.23-.23.23h-1.77Z"/>
    <path class="cls-3" d="M214.68,143.25c.23,0,.35.1.38.29.19.98,1.02,1.6,2.85,1.6s2.67-.69,2.67-1.52c0-.54-.38-1.02-1.54-1.12l-3-.25c-2.35-.19-3.59-1.27-3.59-3,0-2,1.75-3.84,5.15-3.84s5.06,1.63,5.06,3.48c0,.17-.13.33-.37.33h-1.9c-.19,0-.31-.06-.35-.29-.12-.67-.77-1.33-2.46-1.33s-2.52.65-2.52,1.5c0,.52.35.9,1.4.98l2.98.25c2.69.23,3.75,1.58,3.75,3.17,0,1.81-1.56,3.83-5.29,3.83-3.52,0-5.46-1.67-5.46-3.58v-.15c0-.19.15-.35.37-.35h1.86Z"/>
    <path class="cls-3" d="M230.29,137.79c-.12,0-.27-.15-.27-.27v-1.65c0-.12.15-.27.27-.27h10.92c.12,0,.27.15.27.27v1.65c0,.12-.15.27-.27.27h-4.15v9.11c0,.12-.12.23-.23.23h-2.15c-.12,0-.23-.12-.23-.23v-9.11h-4.15Z"/>
    <path class="cls-3" d="M248.94,135.83c0-.12.12-.23.23-.23h5.34c2.81,0,4.81,1.52,4.81,4.04,0,1.75-1.06,2.92-2.6,3.46v.04s.35.37.62.77l1.94,2.85c.1.13.12.21.12.25,0,.08-.04.13-.15.13h-2.56c-.1,0-.23-.08-.31-.19l-2.35-3.42h-2.48v3.38c0,.12-.12.23-.23.23h-2.15c-.12,0-.23-.12-.23-.23v-11.07ZM251.56,137.79v3.65h2.79c1.44,0,2.37-.67,2.37-1.81s-.92-1.85-2.37-1.85h-2.79Z"/>
    <path class="cls-3" d="M276.4,135.83c0-.12.12-.23.23-.23h2.15c.12,0,.23.12.23.23v5.79c0,3.73-2.35,5.71-5.88,5.71s-5.88-1.98-5.88-5.71v-5.79c0-.12.12-.23.23-.23h2.15c.12,0,.23.12.23.23v5.77c0,2.38,1.17,3.54,3.27,3.54s3.27-1.15,3.27-3.54v-5.77Z"/>
    <path class="cls-3" d="M296.61,140.25c-.19,0-.29-.08-.33-.31-.19-1.33-1.4-2.35-3.13-2.35-1.98,0-3.6,1.52-3.6,3.77s1.54,3.77,3.6,3.77c1.75,0,2.92-.86,3.13-2.15.04-.25.13-.33.37-.33h1.92c.15,0,.33.1.33.29,0,2.48-2.33,4.38-5.75,4.38s-6.21-2.4-6.21-5.96,2.73-5.96,6.21-5.96c3.65,0,5.75,2.31,5.75,4.59,0,.13-.1.25-.31.25h-1.98Z"/>
    <path class="cls-3" d="M306.05,137.79c-.12,0-.27-.15-.27-.27v-1.65c0-.12.15-.27.27-.27h10.92c.12,0,.27.15.27.27v1.65c0,.12-.15.27-.27.27h-4.15v9.11c0,.12-.12.23-.23.23h-2.15c-.12,0-.23-.12-.23-.23v-9.11h-4.15Z"/>
    <path class="cls-3" d="M327.32,146.9c0,.12-.12.23-.23.23h-2.15c-.12,0-.23-.12-.23-.23v-11.07c0-.12.12-.23.23-.23h2.15c.12,0,.23.12.23.23v11.07Z"/>
    <path class="cls-3" d="M348.13,141.36c0,3.61-2.9,5.96-6.36,5.96s-6.36-2.35-6.36-5.96,2.9-5.96,6.36-5.96,6.36,2.4,6.36,5.96ZM338.01,141.36c0,2.33,1.71,3.77,3.75,3.77s3.75-1.44,3.75-3.77-1.71-3.77-3.75-3.77-3.75,1.44-3.75,3.77Z"/>
    <path class="cls-3" d="M366.1,147.13l-5.88-6c-.62-.62-1.31-1.48-1.31-1.48h-.06v7.25c0,.12-.12.23-.23.23h-2.15c-.12,0-.23-.12-.23-.23v-11.07c0-.12.12-.23.23-.23h1.77l5.83,5.92c.63.63,1.35,1.56,1.35,1.56h.08v-7.25c0-.12.12-.23.23-.23h2.15c.12,0,.23.12.23.23v11.07c0,.12-.12.23-.23.23h-1.77Z"/>
  </g>
  <path class="cls-2" d="M218.55,71.31l3.52-5.09c.16-.23-.02-.52-.32-.52h-23.86c-.3,0-.48.29-.32.52l3.52,5.09c.07.1.19.16.32.16h16.83c.13,0,.25-.06.32-.16Z"/>
  <path class="cls-1" d="M194.47,61.45h30.67c.13,0,.25-.06.32-.16,0,0,.67-.96,1.45-2.08,1.07-1.54-.16-3.53-2.17-3.53h-29.86c-2.01,0-3.24,1.99-2.17,3.53.78,1.12,1.45,2.08,1.45,2.08.07.1.19.16.32.16Z"/>
  <path class="cls-3" d="M211.62,81.32l3.52-5.09c.16-.23-.02-.52-.32-.52h-10.02c-.3,0-.48.29-.32.52l3.52,5.09c.07.1.19.16.32.16h2.98c.13,0,.25-.06.32-.16Z"/>
</svg>